<svg version="1.1" id="Layer_1" xmlns="http://www.w3.org/2000/svg" xmlns:xlink="http://www.w3.org/1999/xlink" x="0px" y="0px" viewBox="0 0 530.34 56.1" style="enable-background:new 0 0 530.34 56.1;" xml:space="preserve">
<style type="text/css">
	.st0{fill:#232320;}
</style>
<g>
	<g>
		<g>
			<path d="M447.4,2.93l.27-2c.72,0,2.57.17,3,.25a27.81,27.81,0,0,0,4,.39h.07c2,0,2.7-.13,4.14-.22S462.19,1,464.2,1l.37,2.57s-.65.07-1.64.24c-4.95.84-7.15.58-7.15,3.19V29.34c0,18.06-1.42,21-2.55,22l.69,1c2.2-1.07,8.28.14,12,.14,11.68,0,10.83-1.6,12.82-12.76h2c-1.09,7.88-1.76,11.4-2.2,15.56-.34,0-1.79,0-2.79-.07-2.55-.16-5.85-.34-11.67-.34-9.66,0-10.51.16-12.1.27-.46,0-4.86.14-6.2.14l-.28-2.12c1.75-.3,2.63-.37,3.64-1.11,1.34-1,2.33-1.24,2.33-20.15V12.62c0-7.13-.4-8.26-2.25-9Z"></path><path d="M327.67,43c-.58,7.44.26,8.38,4.57,9.21l2.28.45-.17,1.15-.2,1.41c-.31,0-1.64,0-2.62-.07-1.6-.14-4.2-.34-5.73-.34-1.25,0-3.69.2-5.13.34a23.65,23.65,0,0,1-2.43.06l-.17-1.2-.17-1.16s1.25-.3,2.21-.49c3.19-.65,4-.48,4.8-9.38s2.76-32.11,3-34.78-.29-3.4-3.94-3.82c-1.39-.16-1.91-.24-1.91-.24l.21-1.53.18-1.32c.51,0,1.6.15,2,.18.66.05,1.64.12,2.58.12s1.94-.09,2.51-.12,1.18-.08,2-.08c0,0,14.62,32,16.33,35.65s3.67,8.31,4.09,11.57h1.24L372.13,3c.45-1.07.69-1.6.69-1.6s1.33,0,1.84.09,2,.08,3.49.08,2.31-.07,3-.12c.37,0,1.35-.17,1.85-.17l.17,1.19L383.39,4l-2.74.28c-1.43.15-2.75,1-2.21,6.48s1.88,22,2.63,29.48c.89,8.83.89,11.77,2.65,12.27l.89.2c1,.21,2.1.36,2.1.36l-.16,1.11-.15,1.07c-.54,0-1.73-.1-2.27-.12-1.29,0-3.78-.29-5.69-.29-1.56,0-3.25.24-4.46.28-.57,0-1.56.12-2.4.12l-.15-1-.14-1,1.65-.41.95-.24c2.61-.74,3.71-1.17,2.84-12.51s-2.39-31.46-2.39-31.46h-1.22l-3.35,7.69c-2,4.65-2.34,5.48-5.63,13.22-1.62,3.82-3.24,7.64-4.7,11.1-2.79,6.57-5.68,13.3-5.68,13.3h-4.35a26.59,26.59,0,0,0-2.57-9c-4-8.57-9.64-20.74-11.68-25.1a59.47,59.47,0,0,1-3.61-11.16h-1.12Z"></path><path d="M148.31,1,146,1.24a34.62,34.62,0,0,1-4.61.35A35.78,35.78,0,0,1,137,1.22l-2-.27-.13,1-.2,1.49,1.82.48c2.54.63,3.92,2.26,3.92,9.06V31.75c0,13.91-5.59,21.26-16.16,21.26-4.58,0-8.26-1.36-10.94-4.06-3.55-3.55-5.32-9.34-5.29-17.2l.09-21.13c0-4.54.46-5.71,2.65-6.57.65-.26,2.56-.93,2.56-.93L113,.94s-2.09.18-3.13.29-2.69.33-4,.35-3-.24-4-.35L99.08.94l-.31,2.23,2.13.88c2.17.86,2.64,2,2.64,6.57V31.08c0,16.1,7.34,25,20.66,25,7.14,0,19.22-3.15,19.22-24.31V10.55c0-4.23.84-5.91,3.35-6.63l1.9-.53-.17-1.26Z"></path><path d="M177.73.86c-2.26,0-5.33.24-8,.46-1.9.15-3.54.28-4.38.28-1.17,0-2.45-.1-3.39-.17-.55,0-1.92-.12-2.14-.12l-.15,1.1-.15,1.08,1.26.5c.24.09.54.21.9.37C163.2,5,163.2,9,163.2,27.72v4.09c0,16.3,0,19.7-1.25,20.19-.41.16-.75.27-1,.36l-1.41.45.16,1.08.16,1.1c.91,0,1.8,0,2.57-.09,1-.07,2.28-.15,2.94-.15a41.27,41.27,0,0,1,4.66.4,65.46,65.46,0,0,0,7.74.59c16.67,0,29.24-11.9,29.24-27.68C207,12.54,194.41.86,177.73.86Zm0,52.31c-7.27,0-9.24-1.1-9.62-2-.66-1.55-.65-11.33-.64-20V27.72c0-18.48.05-20.75.48-22,.38-1.09,3.86-2.2,9.77-2.2,7.28,0,22.39,1,24.15,23.19C203.13,42.36,192.91,53.17,177.73,53.17Z"></path><path d="M269.13,0c-15.75,0-25.38,11.77-25.38,28,0,10,3.92,18.74,10.64,23.67A25,25,0,0,0,269.13,56c16.12,0,25.38-11.78,25.38-28,0-9.43-3.6-17.77-9.5-22.75C280.75,1.7,275.3,0,269.13,0Zm3,52.91c-6.19.76-20.18.62-23-22.49-2.72-22.4,11-26.51,17-27.24,8.2-1.07,20.36.81,23,22.41C291,41.22,284.61,51.44,272.16,53Z"></path><path d="M231.78,4c1-.17,1.64-.24,1.64-.24l-.17-1.13-.12-1L233,1c-.86.11-1.89.34-3.33.43s-3.15.22-5.15.22-3.77-.14-5.14-.22S216.83,1,216,1l-.13,1-.25,1.86a14.78,14.78,0,0,1,1.67.2c4.95.84,5.2,1.19,5.18,7.58h0l0,15.13h0v3.15h0l0,15.13c0,6.39-.23,6.74-5.18,7.58-1,.17-1.66.21-1.66.21l.17,1.18.18,1.29h1.15c.22,0,.76,0,1.51-.08,1.55-.1,3.89-.33,5.88-.33s4.34.23,5.89.33c.75.05,1.3.08,1.51.08h1.12l.19-1.34.16-1.13s-.63-.05-1.63-.21c-4.95-.84-5.2-1.19-5.18-7.58h0l0-15.13h0V26.7h0l0-15.13C226.58,5.17,226.83,4.82,231.78,4Z"></path><path d="M58.45,4.14c-7.79,0-7.38-1.38-8.55,12.27H47.18A87.12,87.12,0,0,0,46.89,1s7,.42,10.71.42S64,1.15,69,1.15c5.23,0,6.52.38,11.1.38,6.59-.16,11-.57,11-.57a95.74,95.74,0,0,0-.3,15.46H88.07C86.9,2.76,87.3,4.14,79.52,4.14H71.78c-.66.79-.67,5-.69,22.55L71,45h0c0,6.39.23,6.74,5.18,7.58,1,.17,4.35.19,4.35.19v2.49H76.38c-.22,0-.76,0-1.5-.08-1.55-.1-3.9-.25-5.89-.25s-4.34.15-5.89.25c-.74.05-1.29.08-1.5.08H57.41V52.74s3.36,0,4.35-.19c4.95-.84,5.2-1.19,5.18-7.58l0-18.28c0-17.51,0-21.77-.69-22.55Z"></path><path d="M408.42,52.77c-2.77-.25-3.15-1.22-3.15-9.22,0-3,.37-4.17-.4-5.7l.76-.6c1.7,1.15,3,1.54,8.91,1.54,12.19,0,22-8,22-19.54C436.6,7.56,427.4.86,413.72.86a51.76,51.76,0,0,0-5.56.39c-1.75.17-3.4.34-4.78.34a22.31,22.31,0,0,1-3.56-.41,27.34,27.34,0,0,0-3-.23l-.09.64-.22,1.58s.61.23,1.31.47l.6.21c2.61,1,2.8,2.5,2.8,23.52,0,22.64.11,24.18-2.48,25l-1.14.37-1.55.47.29,2a10.94,10.94,0,0,0,2.28-.09,46.17,46.17,0,0,1,5.13-.32c1.83,0,5,.19,6.92.31s3.86.24,3.86.24l.24-2.29S411.2,53,408.42,52.77Zm19-21.61c-2.9,2.9-8.4,4.51-13,4.51-3.5,0-7-.63-7.77-1.21s-1.09-2.07-1.09-9.63c0-15.91.3-19,1-19.82s3.2-1.53,6.94-1.53c11.44,0,18.37,5.16,18.39,15.77C431.84,24.08,430.31,28.24,427.39,31.16Z"></path><path d="M24.34,25.85,17.61,24C9.2,21.8,5.92,18.79,5.92,13.35,5.92,7,10.56,2.92,17.75,2.92c9.11,0,12.72,8,15,15.72.11.38.39,1.27.39,1.27h2.67l-.74-6.7c-.21-1.74-.41-3.37-.45-3.78-.24-2.84-.24-6.95-.24-7.41,0-.91,0-1.48,0-1.48h-2.8L31.52,2a20,20,0,0,0,1.13,7.18l-1,.28S29.15.64,18.5.07h0c-.35,0-.71,0-1.06,0C8.52,0,2.06,5.87,2.06,13.92c0,7.14,4.13,11.6,13,14l7.72,2c7.8,2.1,11.28,5.62,11.28,11.44,0,7.35-4.73,11.74-12.65,11.74-11.68,0-15.31-8.71-18-17.63C3.29,35.1,3,34.12,3,34.12H.36s.18,2.32.26,3.28c.19,2.22.52,5.93.52,9.61,0,2.1-.11,4.31-.18,5.77L.74,55.62H4c.59-4-.5-10.92-.5-10.92h1s2.06,8,8.36,10.16A26.52,26.52,0,0,0,20.69,56c10.48,0,17.25-6.13,17.25-15.6C38,33,33.49,28.27,24.34,25.85Z"></path><path d="M516,25.85,509.31,24c-8.42-2.24-11.69-5.25-11.69-10.69,0-6.34,4.63-10.43,11.83-10.43,9.11,0,12.72,8,15.05,15.72.11.38.39,1.27.39,1.27h2.66l-.74-6.7c-.21-1.74-.41-3.37-.45-3.78-.24-2.84-.24-6.95-.24-7.41,0-.91,0-1.48,0-1.48h-2.79L523.22,2a20,20,0,0,0,1.13,7.18l-1.05.28S520.84.64,510.2.07h0c-.35,0-.71,0-1.07,0-8.9,0-15.36,5.83-15.36,13.88,0,7.14,4.14,11.6,13,14l7.72,2c7.81,2.1,11.28,5.62,11.28,11.44,0,7.35-4.73,11.74-12.65,11.74-11.68,0-15.3-8.71-18-17.63-.13-.44-.41-1.42-.41-1.42h-2.64s.18,2.32.26,3.28c.19,2.22.52,5.93.52,9.61,0,2.1-.11,4.31-.18,5.77l-.22,2.84h3.2c.59-4-.49-10.92-.49-10.92h1s2.06,8,8.36,10.16A26.47,26.47,0,0,0,512.39,56c10.48,0,17.25-6.13,17.25-15.6C529.65,33,525.19,28.27,516,25.85Z"></path></g></g></g></svg>